<svg xmlns="http://www.w3.org/2000/svg" width="1200" height="980" viewBox="0 0 1200 980">
  <defs>
    <linearGradient id="bg" x1="0" x2="1" y1="0" y2="1">
      <stop stop-color="#050505"/>
      <stop offset=".46" stop-color="#151f24"/>
      <stop offset="1" stop-color="#10100f"/>
    </linearGradient>
  </defs>
  <rect width="1200" height="980" fill="url(#bg)"/>
  <rect x="60" y="60" width="1080" height="860" rx="26" fill="#0c0d0d" stroke="#f4efe533"/>
  <text x="96" y="210" fill="#5ad7ff" font-family="Inter, Arial" font-size="28" font-weight="800" letter-spacing="6">COACHING INSTITUTE</text>
  <text x="96" y="330" fill="#f4efe5" font-family="Georgia, serif" font-size="94">Abstract</text>
  <text x="96" y="430" fill="#f4efe5" font-family="Georgia, serif" font-size="94">Knowledge</text>
  <rect x="96" y="520" width="210" height="58" rx="29" fill="#f4efe5"/>
  <text x="132" y="558" fill="#050505" font-family="Inter, Arial" font-size="20" font-weight="800">View Courses</text>
  <rect x="620" y="165" width="420" height="570" rx="18" fill="#ffffff0b" stroke="#f4efe526"/>
  <rect x="662" y="220" width="336" height="58" rx="10" fill="#c9a968" opacity=".72"/>
  <rect x="662" y="314" width="336" height="72" rx="10" fill="#ffffff12"/>
  <rect x="662" y="418" width="336" height="72" rx="10" fill="#ffffff12"/>
  <rect x="662" y="522" width="336" height="72" rx="10" fill="#ffffff12"/>
  <rect x="96" y="740" width="270" height="92" rx="10" fill="#ffffff0d" stroke="#f4efe526"/>
  <rect x="396" y="740" width="270" height="92" rx="10" fill="#ffffff0d" stroke="#f4efe526"/>
  <text x="132" y="795" fill="#f4efe5" font-family="Inter, Arial" font-size="22" font-weight="800">Class 1-12</text>
  <text x="432" y="795" fill="#f4efe5" font-family="Inter, Arial" font-size="22" font-weight="800">CUET + Maths</text>
</svg>
